<svg width="827" height="534" viewBox="0 0 827 534" fill="none" xmlns="http://www.w3.org/2000/svg">
<path d="M188.4 201.8C178.1 193.3 164 189.1 146 189.1H101.2V195.4H145.2C160.5 195.4 174.3 198.5 182.8 205.9C191.3 213.3 197.6 224.1 197.6 237.5C197.6 250.5 192 260 183.3 267.3C174.6 274.6 158.8 277.8 143.1 277.8H92.6V284.1H143.5C162.4 284.1 177.2 280 187.9 271.8C198.5 263.6 203.9 252 203.9 237.1C203.9 221.9 198.7 210.2 188.4 201.8Z" fill="white"/>
<path d="M184.6 210.8C178.2 205.9 170.9 202 150.1 202H115.5V208.1C115.5 208.1 131 207.9 149.3 208.1C167 208.3 173.5 210.3 179.5 214.7C187.1 220.3 191.9 227.3 191.9 237C191.9 246.4 187.1 253 179.4 258.7C171.6 264.5 159.6 264.5 154.7 264.7C152.9 264.7 129 264.7 129 264.7V270.8C129 270.8 140.8 271 148.2 270.8C165 270.4 175 269.4 184.3 262.5C193 256 197.6 247.5 197.6 236.7C197.6 222.5 190.4 215.4 184.6 210.8Z" fill="white"/>
<path d="M181.5 218.9C176.7 215.9 172.5 213.9 152.6 213.9H127.7V217.9H151.9C169.5 217.9 176.1 221 178.2 222.3C182.2 224.7 187.4 228.7 187.4 236.7C187.4 241.8 184.4 248.3 179.9 250.8C175.8 253.1 168.3 255.2 155.2 255.2H74V259.2H155.4C171.3 259.2 176.7 257.4 182.3 254.3C187.9 251.2 191.7 244.8 191.7 236.7C191.7 227.5 186.6 222.1 181.5 218.9Z" fill="white"/>
<path d="M197.3 263.2C187 254.7 172.9 250.5 154.9 250.5H124.9V256.8H154C169.3 256.8 183.1 260 191.6 267.3C200.1 274.6 206.5 285.5 206.5 298.9C206.5 311.9 201 321.4 192.2 328.7C183.4 336 167.7 339.2 152 339.2H101.5V345.5H152.4C171.3 345.5 186.1 341.4 196.8 333.2C207.5 325 212.8 313.4 212.8 298.5C212.7 283.4 207.6 271.7 197.3 263.2Z" fill="white"/>
<path d="M193.5 272.2C187.1 267.4 179.8 263.4 159 263.4H112V269.5C112 269.5 139.9 269.3 158.2 269.5C175.9 269.7 182.4 271.7 188.4 276.1C196 281.7 200.8 288.7 200.8 298.4C200.8 307.8 196 314.4 188.3 320.1C180.5 325.9 168.5 325.9 163.6 326.1C161.8 326.1 137.9 326.1 137.9 326.1V332.2C137.9 332.2 149.8 332.4 157.1 332.2C173.9 331.8 183.9 330.8 193.2 323.9C201.9 317.4 206.5 308.9 206.5 298.1C206.5 284 199.4 276.8 193.5 272.2Z" fill="white"/>
<path d="M122 293H166.1V289.6H122V293Z" fill="white"/>
<path d="M140.2 304.9H165.8V302H140.2V304.9Z" fill="white"/>
<path d="M101.5 293H114.5V289.6H101.5V293Z" fill="white"/>
<path d="M93.3 305.1H133V301.7H93.3V305.1Z" fill="white"/>
<path d="M103.1 217.6H118.6V214.8H103.1V217.6Z" fill="white"/>
<path d="M92.4 240.4H127.7V237.2H92.4V240.4Z" fill="white"/>
<path d="M93.3 331.8H130.6V327.8H93.3V331.8Z" fill="white"/>
<path d="M84.1 345.1H93.4V339.2H84.1V345.1Z" fill="white"/>
<path d="M107.3 230.4H165.9V227.2H107.3V230.4Z" fill="white"/>
<path d="M136.6 240.4H164.8V237.2H136.6V240.4Z" fill="white"/>
<path d="M190.4 280.9C185.6 278 181.4 276 161.5 276H129.9V279.9H160.9C178.5 279.9 185.2 282.9 187.2 284.1C191.1 286.4 196.4 290.2 196.4 298C196.4 303 193.4 309.2 188.9 311.6C184.8 313.8 177.3 315.8 164.2 315.8H82.9V319.7H164.3C180.2 319.7 185.6 318 191.2 315C196.8 312 200.5 305.9 200.5 298C200.6 289.3 195.5 284.1 190.4 280.9Z" fill="white"/>
<path d="M273.8 272.2V307.9H293.3C301.7 307.9 308.3 306.3 312.9 303.1C317.4 300.2 320 295.2 319.9 289.8C319.9 278.1 310 272.2 290.3 272.2H273.8ZM273.8 229.7V261.7H288.5C296.4 261.7 302.5 260.2 307 257.1C311.4 254.3 314 249.3 313.8 244.1C313.8 234.5 306 229.6 290.3 229.6L273.8 229.7ZM259.4 318.4V219.2H294.3C304.9 219.2 313.3 221.3 319.5 225.5C325.7 229.7 328.8 235.2 328.8 241.9C328.9 247.3 326.9 252.6 323.2 256.6C319.4 260.8 314.3 263.7 307.7 265.5V265.8C316 266.6 322.6 269.1 327.5 273.4C332.4 277.5 335.1 283.6 334.9 290C334.9 298.5 331.1 305.3 323.6 310.6C316.1 315.9 306.6 318.5 295.1 318.5H259.4V318.4Z" fill="white"/>
<path d="M350.9 318.4H364.9V247.6H350.9V318.4ZM358 229.5C355.7 229.6 353.4 228.8 351.6 227.4C349.9 226.2 348.9 224.2 349 222.2C349 220.1 350 218.1 351.6 216.9C353.4 215.5 355.7 214.7 358 214.8C360.4 214.7 362.7 215.5 364.5 216.9C367.4 219 368 223 366 225.9C365.6 226.5 365.1 227 364.5 227.4C362.7 228.9 360.4 229.6 358 229.5Z" fill="white"/>
<path d="M426.8 317.7C423.5 319.2 419.1 319.9 413.7 319.9C398.4 319.9 390.7 313 390.7 299.1V257.2H375.7V247.5H390.7V230.2L404.7 226.5V247.5H426.7V257.2H404.7V297.1C404.7 301.8 405.7 305.2 407.7 307.3C409.7 309.4 413 310.3 417.6 310.3C420.8 310.4 424 309.6 426.7 307.9L426.8 317.7Z" fill="white"/>
<path d="M554.1 318.4H541V257.2C541.1 251.3 541.4 245.3 542.1 239.4H541.8C541 242.4 539.8 245.4 538.4 248.2L499.9 318.3H493.4L455 248.7C453.5 245.7 452.4 242.6 451.6 239.3H451.3C451.8 245.2 452 251.2 451.9 257.2V318.3H439.2V227.1H456.7L491.3 290.7C493.3 294.2 495.1 297.9 496.5 301.7H497C499.3 296.7 501.1 293 502.4 290.5L537.7 227.1H554.2V318.4" fill="white"/>
<path d="M625.3 282.5L604.2 284.9C597.7 285.6 592.8 286.9 589.5 288.8C586.2 290.7 584.5 294 584.5 298.7C584.5 302.1 586.2 305.3 589.1 307.2C592.1 309.4 596.2 310.5 601.3 310.5C608.3 310.5 614 308.5 618.5 304.6C622.9 300.9 625.4 295.4 625.3 289.6V282.5ZM639.3 318.4H625.3V307.3H625C618.9 315.8 609.9 320 598.1 320C589.4 320 582.6 318.1 577.6 314.4C572.8 311 570.1 305.4 570.2 299.5C570.2 286.3 579.8 278.6 599.1 276.4L625.3 273.4C625.3 261.4 619.3 255.4 607.3 255.4C597.1 255.3 587.2 258.3 578.8 264.1V252.5C587.4 248.1 597.3 245.9 608.5 245.9C629.1 245.9 639.3 254.7 639.3 272.3V318.4Z" fill="white"/>
<path d="M704.3 259C701.8 257.5 698.3 256.7 693.7 256.7C687.9 256.6 682.4 259.1 678.7 263.6C674.7 268.2 672.7 274.4 672.7 282.3V318.4H658.7V247.6H672.7V262.2H673C674.8 257.5 678 253.4 682.2 250.5C686.2 247.7 691 246.3 696 246.3C698.8 246.2 701.7 246.5 704.4 247.3L704.3 259Z" fill="white"/>
<path d="M753.1 317.7C749.8 319.2 745.4 319.9 740 319.9C724.7 319.9 717 313 717 299.1V257.2H702V247.5H717V230.2L731 226.5V247.5H753V257.2H731V297.1C731 301.8 732 305.2 734 307.3C736 309.4 739.3 310.3 743.9 310.3C747.1 310.4 750.3 309.6 753 307.9L753.1 317.7Z" fill="white"/>
</svg>
